PathFileType	4	(X/Y/Z)	/Users/itak/Documents/Research/Walk-IL/dataset/trc/00112_00007.trc
DataRate	CameraRate	NumFrames	NumMarkers	Units	OrigDataRate	OrigDataStartFrame	OrigNumFrames
100.000000	100.000000	4	53	mm	100.000000	140	560
Frame#	Time	RPSI			LPSI			L3			STRN			T10			C7			CLAV			RBAK			LBAK			LSHO			LUPA			LAEL			LAOL			LWTS			LWPS			LFRA			LIFD			LHPS			LHTS			RSHO			RUPA			RAEL			RAOL			RWTS			RWPS			RFRA			RIFD			RHTS			RHPS			RBHD			LFHD			RFHD			LBHD			LHIP			RHIP			RASI			LASI			LKNE			LTHI			LANK			LTIP			LTOE			LMT1			LMT5			LHEE			RKNE			RTHI			RANK			RTIP			RTOE			RMT1			RMT5			RHEE			
		X1	Y1	Z1	X2	Y2	Z2	X3	Y3	Z3	X4	Y4	Z4	X5	Y5	Z5	X6	Y6	Z6	X7	Y7	Z7	X8	Y8	Z8	X9	Y9	Z9	X10	Y10	Z10	X11	Y11	Z11	X12	Y12	Z12	X13	Y13	Z13	X14	Y14	Z14	X15	Y15	Z15	X16	Y16	Z16	X17	Y17	Z17	X18	Y18	Z18	X19	Y19	Z19	X20	Y20	Z20	X21	Y21	Z21	X22	Y22	Z22	X23	Y23	Z23	X24	Y24	Z24	X25	Y25	Z25	X26	Y26	Z26	X27	Y27	Z27	X28	Y28	Z28	X29	Y29	Z29	X30	Y30	Z30	X31	Y31	Z31	X32	Y32	Z32	X33	Y33	Z33	X34	Y34	Z34	X35	Y35	Z35	X36	Y36	Z36	X37	Y37	Z37	X38	Y38	Z38	X39	Y39	Z39	X40	Y40	Z40	X41	Y41	Z41	X42	Y42	Z42	X43	Y43	Z43	X44	Y44	Z44	X45	Y45	Z45	X46	Y46	Z46	X47	Y47	Z47	X48	Y48	Z48	X49	Y49	Z49	X50	Y50	Z50	X51	Y51	Z51	X52	Y52	Z52	X53	Y53	Z53	

141	1.4	477.1868286132812	1126.587890625	-235.5442810058594	471.9605407714844	1129.732421875	-371.1137084960938	467.7292175292969	1164.825439453125	-305.0039978027344	687.0953369140625	1365.85888671875	-312.3097839355469	433.9884948730469	1316.680053710938	-306.4291687011719	470.9510498046875	1607.829223632812	-326.5336303710938	652.48291015625	1501.084106445312	-316.5840454101562	418.0538635253906	1425.19091796875	-235.5527496337891	462.5969848632812	1586.8759765625	-427.9612426757812	550.0922241210938	1571.6103515625	-494.6358337402344	535.156005859375	1439.865966796875	-563.9065551757812	563.4447021484375	1221.50830078125	-584.1578979492188	492.8390197753906	1205.947998046875	-533.9342041015625	676.8462524414062	972.990234375	-527.5765991210938	600.1389770507812	940.0355834960938	-562.17041015625	588.2587890625	1106.662353515625	-585.1189575195312	698.6097412109375	779.6272583007812	-500.5521850585938	633.8281860351562	866.9073486328125	-558.7097778320312	699.3297729492188	884.6851806640625	-535.6336669921875	526.7730102539062	1590.843627929688	-143.9216461181641	511.4307250976562	1517.668334960938	-79.45386505126953	504.3839416503906	1222.795776367188	-57.4243278503418	496.1690673828125	1221.665893554688	-153.2804718017578	655.5044555664062	985.5548095703125	-77.0107421875	583.8863525390625	965.9108276367188	-42.50247573852539	530.7406616210938	1150.03369140625	-42.98762893676758	686.036376953125	792.0999755859375	-95.88046264648438	689.308837890625	878.3234252929688	-73.22872924804688	625.0745239257812	868.0572509765625	-39.85140228271484	500.93701171875	1775.346435546875	-250.3064727783203	660.609130859375	1851.780151367188	-381.0193176269531	657.3740234375	1857.744018554688	-251.4374847412109	493.8760070800781	1772.780517578125	-385.6859436035156	564.150634765625	1045.305297851562	-484.6276550292969	608.1106567382812	1032.721435546875	-122.202018737793	685.5813598632812	1107.1298828125	-177.6776123046875	670.7224731445312	1110.5712890625	-443.919677734375	670.7940063476562	546.6887817382812	-467.4626770019531	622.0535278320312	689.5234985351562	-489.4454650878906	516.4166870117188	44.78931427001953	-472.541748046875	549.2975463867188	303.4776306152344	-495.480224609375	746.5413208007812	39.52799987792969	-424.5510864257812	668.7774047851562	46.32614135742188	-388.9424133300781	639.5026245117188	33.51337814331055	-501.5390625	450.6900329589844	52.13077545166016	-407.9755554199219	628.99609375	540.1487426757812	-169.1471099853516	637.5926513671875	819.7879638671875	-136.4688720703125	533.6253662109375	31.06008338928223	-193.414794921875	608.7701416015625	404.4909057617188	-161.3441467285156	765.4169921875	38.43120956420898	-251.4652709960938	701.42333984375	26.72759819030762	-292.6850280761719	667.7852172851562	39.4149284362793	-176.0811767578125	474.8727111816406	33.49874877929688	-240.0306701660156	
142	1.41	474.3881530761719	1126.645141601562	-234.5021362304688	468.96240234375	1129.7001953125	-370.0558471679688	464.85986328125	1164.91162109375	-303.9373779296875	685.324462890625	1365.615112304688	-311.585205078125	431.9736328125	1317.094116210938	-305.2196960449219	469.7744140625	1608.133911132812	-325.5177001953125	651.0652465820312	1500.93017578125	-315.8296508789062	416.53466796875	1425.763061523438	-234.2614288330078	461.1911315917969	1587.177001953125	-426.9271545410156	548.5816040039062	1571.599853515625	-493.6959533691406	533.292724609375	1439.869995117188	-562.8661499023438	561.3305053710938	1221.495483398438	-583.2009887695312	490.7913208007812	1205.926513671875	-532.8726806640625	675.5138549804688	973.404296875	-526.4357299804688	598.8357543945312	940.1087036132812	-560.8427124023438	586.39111328125	1106.699829101562	-584.0696411132812	697.9774169921875	780.1906127929688	-499.0923156738281	632.8203735351562	867.12939453125	-557.3114013671875	698.3283081054688	885.216552734375	-534.3850708007812	526.0199584960938	1591.18798828125	-143.0070037841797	510.7149963378906	1518.158081054688	-78.39057159423828	503.2041015625	1223.349853515625	-55.79864883422852	494.4498291015625	1222.098876953125	-151.6297302246094	653.5576782226562	985.6652221679688	-75.63600921630859	582.0314331054688	966.2833862304688	-40.79055786132812	529.4151611328125	1150.54541015625	-41.36581420898438	683.4599609375	792.0929565429688	-94.29631805419922	687.0813598632812	878.3424072265625	-71.80899810791016	622.9901733398438	868.322998046875	-38.11944580078125	499.6133728027344	1775.039306640625	-249.2786102294922	658.8175048828125	1852.043579101562	-380.255615234375	655.8088989257812	1857.930541992188	-250.6701965332031	492.3135681152344	1772.550048828125	-384.6541442871094	561.080810546875	1045.205078125	-483.9746704101562	605.0866088867188	1032.730102539062	-121.4251098632812	682.9851684570312	1106.860595703125	-176.9083557128906	667.6521606445312	1110.433471679688	-443.0921325683594	671.3897705078125	547.0404052734375	-466.9871215820312	621.2257690429688	689.6700439453125	-488.9646606445312	515.2728881835938	45.41608810424805	-472.9954223632812	549.0089111328125	304.1557006835938	-495.4182739257812	744.8336791992188	41.32321166992188	-424.5242004394531	667.3892822265625	47.41593551635742	-388.87939453125	638.406494140625	34.26028442382812	-501.1840515136719	449.3780517578125	52.45376586914062	-408.5255432128906	627.6790771484375	540.2300415039062	-168.5296478271484	635.3326416015625	819.7796630859375	-135.8118743896484	533.6456298828125	30.95868682861328	-193.3662567138672	607.8994140625	404.468994140625	-160.8413391113281	765.4827880859375	38.3566780090332	-251.4921112060547	701.4541625976562	26.68485832214355	-292.7155456542969	667.815673828125	39.37088775634766	-176.0452880859375	474.8931579589844	33.47860717773438	-239.9078063964844	
143	1.42	471.5126037597656	1126.671997070312	-233.5705871582031	465.8975219726562	1129.60107421875	-369.1129150390625	461.9068298339844	1164.939208984375	-302.9938354492188	683.4511108398438	1365.3359375	-310.9541320800781	429.8559265136719	1317.448120117188	-304.1384887695312	468.4891357421875	1608.385131835938	-324.5974731445312	649.5302734375	1500.728515625	-315.1520690917969	414.8890991210938	1426.283081054688	-233.0739440917969	459.6893005371094	1587.41650390625	-425.99267578125	546.9959106445312	1571.522338867188	-492.8468017578125	531.3560180664062	1439.7880859375	-561.9109497070312	559.1508178710938	1221.387817382812	-582.2957763671875	488.6488647460938	1205.818481445312	-531.88623046875	674.1007690429688	973.7453002929688	-525.260498046875	597.4846801757812	940.094970703125	-559.506103515625	584.4495849609375	1106.634033203125	-583.0377197265625	697.287109375	780.6900634765625	-497.551025390625	631.7702026367188	867.2725219726562	-555.8797607421875	697.2732543945312	885.6997680664062	-533.0972900390625	525.1436157226562	1591.47412109375	-142.1781921386719	509.8723449707031	1518.589721679688	-77.41419982910156	501.9139099121094	1223.84814453125	-54.2215461730957	492.6459350585938	1222.4658203125	-150.0225067138672	651.5618286132812	985.763427734375	-74.26654052734375	580.12109375	966.620849609375	-39.09645080566406	527.98779296875	1151.004150390625	-39.78213882446289	680.9017333984375	792.0802612304688	-92.67620086669922	684.8379516601562	878.356201171875	-70.37240600585938	620.8832397460938	868.5669555664062	-36.38298034667969	498.2036743164062	1774.653930664062	-248.3058624267578	656.951171875	1852.272094726562	-379.5141906738281	654.1569213867188	1858.050415039062	-249.9270782470703	490.6869812011719	1772.276245117188	-383.6692504882812	557.9443969726562	1045.01318359375	-483.3700866699219	601.9267578125	1032.733154296875	-120.7557067871094	680.3208618164062	1106.59326171875	-176.2236938476562	664.5424194335938	1110.239013671875	-442.351318359375	671.9876098632812	547.3330688476562	-466.4667663574219	620.422119140625	689.77685546875	-488.42626953125	513.4346313476562	46.24208068847656	-473.432373046875	548.343017578125	304.9280700683594	-495.3834838867188	742.5032958984375	43.28493499755859	-424.5007019042969	665.3139038085938	48.64826583862305	-388.8125915527344	636.551025390625	35.19348526000977	-500.8784484863281	447.3621215820312	52.97025299072266	-409.0638732910156	626.2579956054688	540.3150634765625	-167.9194030761719	632.9756469726562	819.76171875	-135.1578674316406	533.6580810546875	30.84293746948242	-193.310546875	606.9569091796875	404.46142578125	-160.3395233154297	765.5406494140625	38.29103469848633	-251.5169067382812	701.48095703125	26.65338897705078	-292.7438049316406	667.8433837890625	39.32603073120117	-176.0009002685547	474.8952331542969	33.46320343017578	-239.7771148681641	
144	1.43	468.5722045898438	1126.679565429688	-232.751220703125	462.7778930664062	1129.45556640625	-368.2903137207031	458.8804626464844	1164.935302734375	-302.1735534667969	681.4656372070312	1365.039184570312	-310.4189147949219	427.6233215332031	1317.7490234375	-303.1971130371094	467.0791320800781	1608.58935546875	-323.7801818847656	647.867919921875	1500.494995117188	-314.5619201660156	413.1043090820312	1426.7529296875	-232.0052185058594	458.0776977539062	1587.60107421875	-425.1659851074219	545.3120727539062	1571.390502929688	-492.0989379882812	529.334716796875	1439.631591796875	-561.0505981445312	556.9157104492188	1221.198486328125	-581.4390258789062	486.4247131347656	1205.63916015625	-530.97216796875	672.60205078125	974.0166625976562	-524.0538940429688	596.0778198242188	940.007080078125	-558.1631469726562	582.4357299804688	1106.473510742188	-582.0216674804688	696.5113525390625	781.1270141601562	-495.9378967285156	630.661376953125	867.3447875976562	-554.4197998046875	696.148193359375	886.1350708007812	-531.7767944335938	524.1185913085938	1591.708984375	-141.4442749023438	508.8824768066406	1518.963256835938	-76.53245544433594	500.4949035644531	1224.293334960938	-52.71440124511719	490.7564086914062	1222.772583007812	-148.4783172607422	649.513427734375	985.8561401367188	-72.90584564208984	578.15087890625	966.927734375	-37.43050003051758	526.4443969726562	1151.414306640625	-38.25519561767578	678.3651733398438	792.068115234375	-91.02190399169922	682.5758666992188	878.373779296875	-68.91970062255859	618.7420043945312	868.7960815429688	-34.65117645263672	496.702392578125	1774.213623046875	-247.3923950195312	655.0111083984375	1852.473999023438	-378.7921142578125	652.4178466796875	1858.108764648438	-249.2059478759766	488.9859619140625	1771.980590820312	-382.7378845214844	554.7882080078125	1044.752319335938	-482.8103942871094	598.6800537109375	1032.735107421875	-120.1709823608398	677.5844116210938	1106.341064453125	-175.6146545410156	661.408935546875	1109.993408203125	-441.6924743652344	672.6002807617188	547.5744018554688	-465.9054565429688	619.6596069335938	689.8610229492188	-487.8294372558594	510.7097778320312	47.36190795898438	-473.8313903808594	547.2481079101562	305.8480834960938	-495.3478088378906	739.3757934570312	45.30352401733398	-424.5163269042969	662.3832397460938	49.97261810302734	-388.76611328125	633.74267578125	36.32577514648438	-500.6539916992188	444.4682312011719	53.83221817016602	-409.5572204589844	624.7232055664062	540.4077758789062	-167.3130035400391	630.5206909179688	819.7430419921875	-134.5031433105469	533.6646728515625	30.71687698364258	-193.2511596679688	605.9301147460938	404.474609375	-159.8429870605469	765.5909423828125	38.23503494262695	-251.5396728515625	701.5039672851562	26.63234329223633	-292.769287109375	667.8703002929688	39.28318023681641	-175.9498596191406	474.8752746582031	33.4570198059082	-239.6480712890625	
